<?xml version="1.0" encoding="UTF-8" standalone="no"?>
<svg
   xmlns:dc="http://purl.org/dc/elements/1.1/"
   xmlns:cc="http://creativecommons.org/ns#"
   xmlns:rdf="http://www.w3.org/1999/02/22-rdf-syntax-ns#"
   xmlns:svg="http://www.w3.org/2000/svg"
   xmlns="http://www.w3.org/2000/svg"
   viewBox="0 0 725.91998 104.09333"
   height="104.09333"
   width="725.91998"
   xml:space="preserve"
   id="svg2"
   version="1.1"><metadata
     id="metadata8"><rdf:RDF><cc:Work
         rdf:about=""><dc:format>image/svg+xml</dc:format><dc:type
           rdf:resource="http://purl.org/dc/dcmitype/StillImage" /><dc:title></dc:title></cc:Work></rdf:RDF></metadata><defs
     id="defs6" /><g
     transform="matrix(1.3333333,0,0,-1.3333333,0,104.09333)"
     id="g10"><g
       transform="scale(0.1)"
       id="g12"><path
         id="path14"
         style="fill:#5e6061;fill-opacity:1;fill-rule:nonzero;stroke:none"
         d="M 793.461,206.25 V 192.656 H 5444.38 V 206.25 H 793.461 v 0" /><path
         id="path16"
         style="fill:#5e6061;fill-opacity:1;fill-rule:nonzero;stroke:none"
         d="m 564.867,618.852 -128.25,127.91 H 158.914 L 30.0156,617.777 V 161.152 L 158.914,32.1484 h 277.703 l 128.25,127.5976 v 459.106 z m -402.929,-56.434 51.902,51.883 h 168.148 l 51.879,-51.883 V 216.66 L 381.988,164.766 H 213.84 l -51.902,51.894 v 345.758 0" /><path
         id="path18"
         style="fill:#5e6061;fill-opacity:1;fill-rule:nonzero;stroke:none"
         d="M 146.859,780.688 0,633.852 V 147.715 L 145.867,0 H 449.664 L 596.441,147.031 V 633.91 L 450.648,780.688 H 146.859 Z M 13.1875,153.711 V 627.934 L 152.789,767.387 444.594,767.406 581.871,629.75 582.289,152.715 443.629,14.0234 152.789,14.0625 13.1875,153.711 v 0" /><path
         id="path20"
         style="fill:#5e6061;fill-opacity:1;fill-rule:nonzero;stroke:none"
         d="M 413.125,553.129 371.93,594.34 H 223.289 L 182.68,553.734 V 224.98 l 39.726,-39.726 h 151.328 l 39.391,39.414 v 328.461 z m -184.086,27.949 h 137.91 l 32.879,-32.879 V 230.215 l -31.652,-31.66 H 227.781 l -31.172,31.172 v 318.89 l 32.43,32.461 v 0" /><path
         id="path22"
         style="fill:#5e6061;fill-opacity:1;fill-rule:nonzero;stroke:none"
         d="m 977.809,526.684 -4.364,30.187 H 918.16 V 361.523 l 29.457,-4.355 V 338.613 H 842.859 v 18.555 l 29.461,4.355 v 195.348 h -55.289 l -4.359,-30.187 h -19.649 v 55.644 h 204.434 v -55.644 h -19.648" /><path
         id="path24"
         style="fill:#5e6061;fill-opacity:1;fill-rule:nonzero;stroke:none"
         d="m 1129.49,338.613 v 17.461 l 27.28,4.375 v 66.563 h -72.75 v -66.563 l 27.28,-4.375 V 338.613 H 1012 v 17.461 l 28.38,4.375 v 147.309 l -28.38,4.375 v 17.461 h 99.3 v -17.461 l -27.28,-4.375 v -57.461 h 72.75 v 57.461 l -27.28,4.375 v 17.461 h 99.3 v -17.461 l -28.37,-4.375 V 360.449 l 28.37,-4.375 v -17.461 h -99.3" /><path
         id="path26"
         style="fill:#5e6061;fill-opacity:1;fill-rule:nonzero;stroke:none"
         d="m 1414.66,338.613 h -164.78 v 17.461 l 28.38,4.375 v 147.309 l -28.38,4.375 v 17.461 h 164.78 v -50.567 h -18.55 l -4.37,27.286 h -69.83 v -56.758 h 43.65 l 4.36,24.375 h 16.37 v -70.571 h -16.37 l -4.36,24.375 h -43.65 v -65.839 h 69.83 l 4.37,27.285 h 18.55 v -50.567" /><path
         id="path28"
         style="fill:#5e6061;fill-opacity:1;fill-rule:nonzero;stroke:none"
         d="m 1646.72,560.141 c -40.38,0 -61.11,-32.383 -61.11,-99.297 0,-67.309 20.01,-100.043 60.38,-100.043 40.39,0 61.11,32.383 61.11,99.301 0,67.304 -20,100.039 -60.38,100.039 z m -0.37,-225.883 c -75.66,0 -108.76,45.097 -108.76,126.937 0,81.485 33.46,125.508 109.13,125.508 75.66,0 108.76,-45.117 108.76,-126.953 0,-81.488 -33.46,-125.492 -109.13,-125.492" /><path
         id="path30"
         style="fill:#5e6061;fill-opacity:1;fill-rule:nonzero;stroke:none"
         d="m 1892.61,338.613 v 17.461 l 27.27,4.375 v 66.563 h -72.74 v -66.563 l 27.28,-4.375 v -17.461 h -99.3 v 17.461 l 28.37,4.375 v 147.309 l -28.37,4.375 v 17.461 h 99.3 v -17.461 l -27.28,-4.375 v -57.461 h 72.74 v 57.461 l -27.27,4.375 v 17.461 h 99.3 v -17.461 l -28.38,-4.375 V 360.449 l 28.38,-4.375 v -17.461 h -99.3" /><path
         id="path32"
         style="fill:#5e6061;fill-opacity:1;fill-rule:nonzero;stroke:none"
         d="m 2015.55,338.613 v 17.461 l 28.37,4.375 v 147.309 l -28.37,4.375 v 17.461 h 100.4 v -17.461 l -28.38,-4.375 V 360.449 l 28.38,-4.375 v -17.461 h -100.4" /><path
         id="path34"
         style="fill:#5e6061;fill-opacity:1;fill-rule:nonzero;stroke:none"
         d="m 2223.97,507.758 c -30.56,0 -46.91,-22.188 -46.91,-73.465 0,-51.656 15.63,-74.215 46.18,-74.215 30.56,0 47.29,22.188 47.29,73.481 0,51.66 -16,74.199 -46.56,74.199 z m -0.35,-172.778 c -64.4,0 -92.4,36.016 -92.4,99.313 0,63.281 28.36,98.582 92.75,98.582 64.38,0 92.4,-36.035 92.4,-99.316 0,-63.305 -28.38,-98.579 -92.75,-98.579" /><path
         id="path36"
         style="fill:#5e6061;fill-opacity:1;fill-rule:nonzero;stroke:none"
         d="m 2515.32,334.258 c -42.19,0 -76.02,14.551 -76.02,14.551 v 52.011 h 20.73 l 4.73,-33.476 c 0,0 15.63,-5.449 43.29,-5.449 28.37,0 53.83,9.453 53.83,40.371 0,28.011 -19.64,32.027 -43.65,40.023 -38.2,12.734 -78.57,23.645 -78.57,76.016 0,42.558 26.56,68.398 82.21,68.398 25.46,0 52.01,-5.84 72.75,-13.828 v -48.738 h -20.74 l -4.71,31.277 c 0,0 -21.84,4.727 -42.94,4.727 -21.1,0 -42.92,-7.266 -42.92,-35.293 0,-60.723 122.22,-20.723 122.22,-117.856 0,-45.82 -29.83,-72.734 -90.21,-72.734" /><path
         id="path38"
         style="fill:#5e6061;fill-opacity:1;fill-rule:nonzero;stroke:none"
         d="m 2777.94,476.84 -4.37,29.473 h -42.19 V 360.449 l 28.37,-4.375 v -17.461 h -100.39 v 17.461 l 28.37,4.375 v 145.864 h -42.2 l -4.36,-29.473 h -18.56 v 52.754 h 173.87 V 476.84 h -18.54" /><path
         id="path40"
         style="fill:#5e6061;fill-opacity:1;fill-rule:nonzero;stroke:none"
         d="m 2890.68,492.855 -27.65,-75.667 h 55.3 z m 22.56,-154.242 v 17.461 l 27.27,4.375 -13.44,34.551 h -72.75 l -13.48,-34.551 27.29,-4.375 v -17.461 h -83.31 v 17.461 l 27.29,4.375 65.48,169.145 h 41.82 l 65.48,-169.145 27.28,-4.375 v -17.461 h -98.93" /><path
         id="path42"
         style="fill:#5e6061;fill-opacity:1;fill-rule:nonzero;stroke:none"
         d="m 3155.83,476.84 -4.37,29.473 h -42.19 V 360.449 l 28.37,-4.375 v -17.461 h -100.4 v 17.461 l 28.39,4.375 v 145.864 h -42.21 l -4.36,-29.473 h -18.55 v 52.754 h 173.87 V 476.84 h -18.55" /><path
         id="path44"
         style="fill:#5e6061;fill-opacity:1;fill-rule:nonzero;stroke:none"
         d="M 3355.88,338.613 H 3191.1 v 17.461 l 28.37,4.375 v 147.309 l -28.37,4.375 v 17.461 h 164.78 v -50.567 h -18.56 l -4.35,27.286 h -69.84 v -56.758 h 43.65 l 4.36,24.375 h 16.37 v -70.571 h -16.37 l -4.36,24.375 h -43.65 v -65.839 h 69.84 l 4.35,27.285 h 18.56 v -50.567" /><path
         id="path46"
         style="fill:#5e6061;fill-opacity:1;fill-rule:nonzero;stroke:none"
         d="M 3687.98,559.418 V 435.004 c 0,-41.82 -2.55,-60.004 -22.19,-79.652 -14.19,-14.18 -37.47,-21.094 -72.02,-21.094 -34.2,0 -59.66,9.453 -75.67,25.449 -20.72,20.742 -18.55,51.66 -18.55,78.578 v 121.133 l -29.46,4.355 v 18.555 h 104.75 v -18.555 l -29.47,-4.355 V 416.816 c 0,-40.019 22.21,-56.015 56.39,-56.015 18.2,0 33.1,3.652 42.93,14.199 8.72,9.082 13.45,23.281 13.45,41.816 v 142.602 l -29.46,4.355 v 18.555 h 88.75 v -18.555 l -29.45,-4.355" /><path
         id="path48"
         style="fill:#5e6061;fill-opacity:1;fill-rule:nonzero;stroke:none"
         d="M 3917.5,507.758 V 338.613 h -34.2 l -97.13,136.41 V 360.449 l 28.38,-4.375 v -17.461 h -85.49 v 17.461 l 28.38,4.375 v 147.309 l -28.38,4.375 v 17.461 h 66.58 l 93.11,-130.219 v 108.383 l -28.36,4.375 v 17.461 h 85.48 v -17.461 l -28.37,-4.375" /><path
         id="path50"
         style="fill:#5e6061;fill-opacity:1;fill-rule:nonzero;stroke:none"
         d="m 3968.41,338.613 v 17.461 l 28.37,4.375 v 147.309 l -28.37,4.375 v 17.461 h 100.4 v -17.461 l -28.38,-4.375 V 360.449 l 28.38,-4.375 v -17.461 h -100.4" /><path
         id="path52"
         style="fill:#5e6061;fill-opacity:1;fill-rule:nonzero;stroke:none"
         d="M 4281.95,507.758 4218.3,338.613 h -42.21 l -63.65,169.145 -27.26,4.375 v 17.461 h 98.92 v -17.461 l -27.28,-4.375 48.39,-130.961 48,130.961 -27.27,4.375 v 17.461 h 83.3 v -17.461 l -27.29,-4.375" /><path
         id="path54"
         style="fill:#5e6061;fill-opacity:1;fill-rule:nonzero;stroke:none"
         d="m 4488.93,338.613 h -164.79 v 17.461 l 28.37,4.375 v 147.309 l -28.37,4.375 v 17.461 h 164.79 v -50.567 h -18.56 l -4.35,27.286 h -69.87 v -56.758 h 43.65 l 4.38,24.375 h 16.37 v -70.571 h -16.37 l -4.38,24.375 h -43.65 v -65.839 h 69.87 l 4.35,27.285 h 18.56 v -50.567" /><path
         id="path56"
         style="fill:#5e6061;fill-opacity:1;fill-rule:nonzero;stroke:none"
         d="m 4635.87,500.492 c -7.28,7.629 -22.92,6.914 -32.74,6.914 h -12.74 v -61.113 h 7.64 c 12.36,0 29.47,-1.453 38.57,8.73 5.8,6.536 7.27,14.18 7.27,22.551 0,8.36 -1.82,16.356 -8,22.918 z m 20.36,-161.879 -17.82,43.653 c -12,29.101 -19.29,42.558 -44.74,42.558 h -3.28 v -64.375 l 27.29,-4.375 v -17.461 h -99.31 v 17.461 l 28.37,4.375 v 147.309 l -28.37,4.375 v 17.461 h 96.4 c 19.64,0 42.55,-1.094 57.47,-14.922 9.81,-9.102 15.28,-21.465 15.28,-35.645 0,-22.187 -14.55,-42.187 -34.57,-48.398 16.01,-11.977 29.84,-51.274 37.84,-70.18 l 27.3,-4.375 v -17.461 h -61.86" /><path
         id="path58"
         style="fill:#5e6061;fill-opacity:1;fill-rule:nonzero;stroke:none"
         d="m 4804.28,334.98 c -35.65,0 -65.48,11.993 -65.48,11.993 v 49.472 h 19.64 l 4.72,-31.289 c 0,0 13.83,-3.984 35.3,-3.984 23.28,0 41.09,7.637 41.09,28.359 0,14.551 -7.99,19.649 -20,23.653 -35.28,12.011 -80.39,17.093 -80.39,64.75 0,34.199 23.65,54.941 70.57,54.941 21.46,0 43.65,-4.375 62.93,-11.289 v -47.285 h -19.64 l -4.73,29.824 c 0,0 -16,3.633 -33.84,3.633 -17.81,0 -33.46,-6.192 -33.46,-24.727 0,-42.566 100.77,-14.199 100.77,-89.847 0,-37.11 -26.94,-58.204 -77.48,-58.204" /><path
         id="path60"
         style="fill:#5e6061;fill-opacity:1;fill-rule:nonzero;stroke:none"
         d="m 4907.21,338.613 v 17.461 l 28.38,4.375 v 147.309 l -28.38,4.375 v 17.461 h 100.41 v -17.461 l -28.38,-4.375 V 360.449 l 28.38,-4.375 v -17.461 h -100.41" /><path
         id="path62"
         style="fill:#5e6061;fill-opacity:1;fill-rule:nonzero;stroke:none"
         d="m 5183.65,476.84 -4.35,29.473 h -42.21 V 360.449 l 28.38,-4.375 v -17.461 h -100.39 v 17.461 l 28.36,4.375 v 145.864 h -42.19 l -4.37,-29.473 h -18.55 v 52.754 h 173.88 V 476.84 h -18.56" /><path
         id="path64"
         style="fill:#5e6061;fill-opacity:1;fill-rule:nonzero;stroke:none"
         d="m 5402.99,507.758 -55.67,-86.215 v -61.094 l 28.39,-4.375 v -17.461 h -100.4 v 17.461 l 28.38,4.375 v 61.094 l -56.39,86.215 -27.28,4.375 v 17.461 h 101.12 v -17.461 l -27.27,-4.375 39.27,-61.824 38.93,61.824 -26.19,4.375 v 17.461 h 84.39 v -17.461 l -27.28,-4.375" /></g></g></svg>